<svg xmlns="http://www.w3.org/2000/svg" width="19.431" height="15.791" viewBox="0 0 19.431 15.791">
  <path id="_104501_twitter_bird_icon" data-name="104501_twitter_bird_icon" d="M23,12.2a7.932,7.932,0,0,1-2.29.628,3.994,3.994,0,0,0,1.753-2.206,7.98,7.98,0,0,1-2.531.968,3.99,3.99,0,0,0-6.793,3.636,11.319,11.319,0,0,1-8.217-4.165,3.991,3.991,0,0,0,1.234,5.322,3.975,3.975,0,0,1-1.806-.5c0,.017,0,.034,0,.05a3.99,3.99,0,0,0,3.2,3.909,4.008,4.008,0,0,1-1.05.14,3.95,3.95,0,0,1-.75-.072,3.991,3.991,0,0,0,3.724,2.769,8.044,8.044,0,0,1-5.9,1.651,11.337,11.337,0,0,0,17.453-9.551q0-.259-.011-.516A8.074,8.074,0,0,0,23,12.2Z" transform="translate(-3.574 -10.326)" fill="#000"/>
</svg>
