<svg xmlns="http://www.w3.org/2000/svg" width="20.725" height="15.791" viewBox="0 0 20.725 15.791">
  <path id="_8546766_discord_icon_1_" data-name="8546766_discord_icon (1)" d="M43.572,33.333a.053.053,0,0,0-.027-.025A17.1,17.1,0,0,0,39.326,32a.064.064,0,0,0-.068.032,11.9,11.9,0,0,0-.525,1.079,15.785,15.785,0,0,0-4.738,0,10.911,10.911,0,0,0-.533-1.079A.067.067,0,0,0,33.394,32a17.049,17.049,0,0,0-4.219,1.308.06.06,0,0,0-.028.024,17.479,17.479,0,0,0-3.062,11.792.071.071,0,0,0,.027.048,17.189,17.189,0,0,0,5.175,2.615.067.067,0,0,0,.073-.024,12.274,12.274,0,0,0,1.059-1.722.066.066,0,0,0-.036-.091,11.32,11.32,0,0,1-1.617-.77.066.066,0,0,1-.007-.11c.109-.081.217-.166.321-.252a.064.064,0,0,1,.067-.009,12.261,12.261,0,0,0,10.416,0,.064.064,0,0,1,.068.008c.1.086.212.171.322.252a.066.066,0,0,1-.006.11,10.624,10.624,0,0,1-1.618.769.066.066,0,0,0-.035.092,13.783,13.783,0,0,0,1.058,1.721.066.066,0,0,0,.073.025,17.132,17.132,0,0,0,5.184-2.615.066.066,0,0,0,.027-.048A17.364,17.364,0,0,0,43.572,33.333ZM32.926,42.77a2.1,2.1,0,0,1,0-4.176,2.1,2.1,0,0,1,0,4.176Zm6.887,0a2.1,2.1,0,0,1,0-4.176,2.1,2.1,0,0,1,0,4.176Z" transform="translate(-26 -31.999)" fill="#000"/>
</svg>
