<svg id="Layer_2" xmlns="http://www.w3.org/2000/svg" width="18.61" height="15.791" viewBox="0 0 18.61 15.791">
  <path id="Path_559" data-name="Path 559" d="M20.555,13.939a2.438,2.438,0,0,0-1,.232.956.956,0,0,1-.9-.033,10.957,10.957,0,0,0-3.384-1.095.963.963,0,0,1-.8-1.194l.5-2.09c.033-.1.1-.166.2-.133l1.891.431a.942.942,0,0,1,.7.663,1.886,1.886,0,0,0,1.758,1.194,1.858,1.858,0,1,0,0-3.715,1.752,1.752,0,0,0-1.327.564,1.068,1.068,0,0,1-.962.3L14.783,8.5a.5.5,0,0,0-.6.332l-.7,2.853a1.694,1.694,0,0,1-1.46,1.294,10.617,10.617,0,0,0-3.682,1.095.986.986,0,0,1-.863.033,2.413,2.413,0,0,0-.962-.232A2.229,2.229,0,0,0,4.93,17.655a.955.955,0,0,1,.3.7v.1A4.8,4.8,0,0,0,7.75,22.432a10.9,10.9,0,0,0,5.805,1.559,10.9,10.9,0,0,0,5.805-1.559,4.845,4.845,0,0,0,2.521-3.981v-.033a.941.941,0,0,1,.332-.73,2.154,2.154,0,0,0,.7-1.592A2.429,2.429,0,0,0,20.555,13.939ZM9.508,17.422a1.36,1.36,0,0,1,1.36-1.327,1.327,1.327,0,1,1-1.36,1.327Zm7.033,3.749a4.205,4.205,0,0,1-3.052.962h0A4.167,4.167,0,0,1,10.47,21.2a.549.549,0,0,1-.1-.663.5.5,0,0,1,.8-.1,3.234,3.234,0,0,0,2.322.663h0a3.088,3.088,0,0,0,2.322-.663.516.516,0,0,1,.73.73Zm-.4-2.422a1.327,1.327,0,1,1,0-2.654,1.327,1.327,0,0,1,0,2.654Z" transform="translate(-4.3 -8.2)" fill="#000"/>
</svg>
